<?xml version="1.0" encoding="UTF-8"?>
<svg xmlns="http://www.w3.org/2000/svg" width="286" height="212" viewBox="0 0 286 212" fill="none" style="background: transparent;">


<path d="M67.7608 69.8196V71.3866H24.8411C21.579 71.3866 18.3488 72.0291 15.3349 73.2774C12.3211 74.5257 9.58265 76.3554 7.27594 78.6621C4.96923 80.9687 3.13943 83.7071 1.89103 86.7209C0.642618 89.7347 4.68337e-05 92.9649 0 96.227V187.16C9.45803e-05 193.748 2.61722 200.066 7.27567 204.724C11.9341 209.383 18.2523 212 24.8404 212H260.306C266.894 212 273.212 209.383 277.871 204.725C282.529 200.066 285.147 193.748 285.147 187.16V96.2267C285.147 89.6384 282.53 83.32 277.871 78.6614C273.212 74.0028 266.894 71.3856 260.306 71.3856H98.3124V69.8185L67.7608 69.8196Z" fill="#090814"/>
<path d="M25.0155 76.6732H260.133C265.048 76.669 269.764 78.6176 273.243 82.0904C276.722 85.5633 278.679 90.2759 278.684 95.1916V186.595C278.687 191.511 276.737 196.228 273.263 199.707C269.789 203.186 265.076 205.143 260.159 205.147H25.0155C22.581 205.148 20.1699 204.671 17.9201 203.741C15.6702 202.811 13.6255 201.446 11.9028 199.726C10.1801 198.006 8.81315 195.963 7.87989 193.715C6.94664 191.466 6.46541 189.056 6.46367 186.621V175.51C7.80187 176.056 9.25379 176.265 10.6915 176.117C12.1292 175.97 13.5086 175.471 14.7081 174.664C15.9075 173.858 16.8903 172.769 17.5697 171.494C18.2492 170.218 18.6045 168.795 18.6043 167.35V115.254C18.6045 113.809 18.2493 112.386 17.5699 111.11C16.8904 109.834 15.9077 108.745 14.7082 107.939C13.5087 107.133 12.1293 106.634 10.6916 106.486C9.25385 106.339 7.8019 106.547 6.46367 107.093V95.2247C6.46147 92.7907 6.93871 90.38 7.86815 88.1304C8.79759 85.8808 10.161 83.8362 11.8806 82.1135C13.6002 80.3908 15.6423 79.0237 17.8902 78.0902C20.1381 77.1567 22.5479 76.6751 24.982 76.6729L25.0155 76.6732Z" fill="white"/>
<path d="M177.4 148.998H108.203C106.991 148.997 105.829 148.515 104.972 147.658C104.115 146.801 103.633 145.639 103.632 144.427V142.153C103.633 140.941 104.115 139.779 104.972 138.922C105.829 138.065 106.991 137.583 108.203 137.581H177.4C178.612 137.583 179.774 138.065 180.631 138.922C181.488 139.779 181.97 140.941 181.971 142.153V144.428C181.97 145.64 181.488 146.802 180.631 147.659C179.774 148.516 178.612 148.998 177.4 148.999V148.998Z" fill="#F0F0F0"/>
<path d="M177.172 148.998H107.975C106.702 148.997 105.482 148.491 104.582 147.591C103.682 146.691 103.176 145.471 103.175 144.198V141.923C103.176 140.65 103.682 139.43 104.582 138.53C105.482 137.631 106.702 137.124 107.975 137.123H177.172C178.444 137.124 179.664 137.631 180.564 138.53C181.464 139.43 181.97 140.65 181.972 141.923V144.198C181.97 145.471 181.464 146.691 180.564 147.591C179.664 148.49 178.444 148.997 177.172 148.998ZM107.975 138.037C106.944 138.038 105.956 138.448 105.227 139.176C104.498 139.905 104.088 140.894 104.087 141.924V144.2C104.088 145.23 104.498 146.219 105.227 146.948C105.956 147.676 106.944 148.086 107.975 148.087H177.172C178.202 148.086 179.191 147.676 179.92 146.948C180.648 146.219 181.058 145.23 181.059 144.2V141.924C181.058 140.894 180.648 139.905 179.92 139.176C179.191 138.448 178.202 138.038 177.172 138.037H107.975Z" fill="#3F3D56"/>
<path d="M177.172 166.479H107.975C106.763 166.478 105.601 165.996 104.744 165.139C103.887 164.282 103.405 163.12 103.403 161.908V159.632C103.405 158.42 103.887 157.258 104.744 156.401C105.601 155.544 106.763 155.062 107.975 155.061H177.172C178.384 155.062 179.546 155.544 180.402 156.401C181.259 157.258 181.742 158.42 181.743 159.632V161.907C181.742 163.119 181.26 164.282 180.403 165.139C179.546 165.996 178.384 166.478 177.172 166.479Z" fill="#F0F0F0"/>
<path d="M177.172 166.708H107.975C106.702 166.707 105.482 166.201 104.582 165.301C103.682 164.401 103.176 163.181 103.175 161.908V159.633C103.176 158.36 103.682 157.14 104.582 156.241C105.482 155.341 106.702 154.835 107.975 154.833H177.172C178.444 154.835 179.664 155.341 180.564 156.241C181.464 157.14 181.97 158.36 181.972 159.633V161.908C181.97 163.181 181.464 164.401 180.564 165.301C179.664 166.201 178.444 166.707 177.172 166.708ZM107.975 155.747C106.944 155.748 105.956 156.158 105.227 156.887C104.498 157.615 104.088 158.604 104.087 159.634V161.91C104.088 162.941 104.498 163.929 105.227 164.658C105.956 165.387 106.944 165.796 107.975 165.797H177.172C178.202 165.796 179.191 165.387 179.92 164.658C180.648 163.929 181.058 162.941 181.059 161.91V159.634C181.058 158.604 180.648 157.615 179.92 156.887C179.191 156.158 178.202 155.748 177.172 155.747H107.975Z" fill="#3F3D56"/>
<path d="M158.771 183.962H125.919C124.707 183.961 123.545 183.479 122.688 182.622C121.831 181.765 121.349 180.603 121.348 179.391V177.116C121.349 175.904 121.831 174.742 122.688 173.885C123.545 173.028 124.707 172.546 125.919 172.544H158.771C159.983 172.546 161.145 173.028 162.002 173.885C162.859 174.742 163.341 175.904 163.342 177.116V179.391C163.341 180.603 162.859 181.765 162.002 182.622C161.145 183.479 159.983 183.961 158.771 183.962Z" fill="#9CC7CB"/>
<path d="M159.001 184.419H126.149C124.876 184.417 123.656 183.911 122.757 183.011C121.857 182.111 121.351 180.891 121.35 179.619V177.343C121.351 176.071 121.858 174.851 122.757 173.951C123.657 173.051 124.877 172.545 126.15 172.543H159.001C160.274 172.545 161.494 173.051 162.394 173.951C163.294 174.851 163.8 176.071 163.801 177.343V179.619C163.8 180.891 163.294 182.112 162.394 183.012C161.494 183.912 160.273 184.418 159.001 184.419ZM126.149 173.458C125.118 173.459 124.13 173.868 123.401 174.597C122.672 175.326 122.262 176.314 122.262 177.345V179.62C122.262 180.651 122.672 181.64 123.401 182.368C124.13 183.097 125.118 183.507 126.149 183.508H159.001C160.031 183.507 161.02 183.097 161.749 182.368C162.477 181.64 162.887 180.651 162.888 179.62V177.345C162.887 176.314 162.477 175.326 161.749 174.597C161.02 173.868 160.031 173.459 159.001 173.458H126.149Z" fill="#3F3D56"/>
<path d="M220.223 102.828L216.764 106.288L211.986 108.759L212.481 113.041L221.539 112.053L222.692 109.747L222.363 107.77L223.022 104.641L220.223 102.828Z" fill="#ED9DA0"/>
<path d="M213.139 111.394L212.857 107.76L203.091 112.382C203.091 112.382 202.335 114.522 204.69 114.853C207.045 115.184 222.694 115.183 222.694 114.359C222.694 113.535 223.122 109.318 223.122 109.318L213.635 112.053L213.141 111.394L213.139 111.394Z" fill="#2F2E41"/>
<path d="M232.665 93.22L235.167 97.4236L236.387 102.662L240.66 103.236L241.93 94.2114L239.978 92.5267L237.981 92.3598L235.109 90.9514L232.665 93.22Z" fill="#ED9DA0"/>
<path d="M239.225 102.194L235.633 101.574L237.711 112.177C237.711 112.177 239.601 113.436 240.499 111.235C241.397 109.033 245.247 93.8665 244.449 93.6625C243.65 93.4585 239.67 92.0077 239.67 92.0077L239.986 101.877L239.225 102.194Z" fill="#2F2E41"/>
<path d="M243.591 14.5582L244.011 24.6314L237.297 24.7965V16.1303L243.591 14.5582Z" fill="#ED9DA0"/>
<path d="M256.891 56.1712C256.891 56.1712 260.524 65.5839 257.882 69.3817C255.24 73.1795 242.855 75.3265 242.855 75.3265L237.736 80.1154L224.197 106.206L216.27 104.39L227.499 77.6386C227.499 77.6386 234.105 66.9038 236.581 65.4188C239.058 63.9338 243.669 58.3524 243.669 58.3524L256.891 56.1712Z" fill="#2F2E41"/>
<path d="M234.433 56.9972L229.346 60.5992C229.346 60.5992 211.315 65.4184 217.094 76.6478C222.874 87.8772 231.461 95.9682 231.461 95.9682L239.057 91.6747L226.837 74.5012L248.304 61.4558L234.433 56.9972Z" fill="#2F2E41"/>
<path d="M188.198 43.3042C185.808 43.7853 184.118 45.4083 184.424 46.9294C184.731 48.4504 186.916 49.2935 189.308 48.812C190.265 48.6328 191.166 48.2268 191.935 47.628L202.037 45.4622L201.171 41.4678L191.078 43.3776C190.138 43.1236 189.15 43.0984 188.198 43.3042Z" fill="#ED9DA0"/>
<path d="M226.345 69.1057C224.597 70.8065 224.059 73.0865 225.142 74.1984C226.225 75.3104 228.518 74.8322 230.265 73.1307C230.973 72.4605 231.509 71.6306 231.83 70.7105L239.141 63.4106L236.247 60.5265L228.807 67.6053C227.879 67.9018 227.035 68.4163 226.346 69.1057H226.345Z" fill="#ED9DA0"/>
<path d="M236.497 21.08H246.773L254.331 26.1992L253.671 46.3452C253.671 46.3452 252.29 51.4041 256.974 56.0881C259.781 58.8952 258.79 60.5461 258.79 60.5461L242.111 61.8656L232.121 58.9768L235.754 49.8962L235.094 47.0891C235.094 47.0891 228.323 42.2999 229.479 37.3462C230.635 32.3925 232.121 22.1535 232.121 22.1535L236.497 21.08Z" fill="#E6E6E6"/>
<path d="M243.681 50.7222L251.112 26.2826C251.112 26.2826 254.91 24.9631 256.561 28.2641C258.212 31.5651 256.135 44.1993 256.135 44.1993L247.479 58.4833L233.608 69.0518L230.14 65.2537L243.681 50.7222Z" fill="#E6E6E6"/>
<path d="M212.321 38.1173L232.254 22.1428C232.254 22.1428 236.135 23.197 235.633 26.8554C235.131 30.5138 226.283 39.7656 226.283 39.7656L211.073 46.6665L193.658 47.5581L192.94 42.4654L212.321 38.1183V38.1173Z" fill="#E6E6E6"/>
<path d="M238.809 19.2644C242.639 19.2644 245.745 16.1593 245.745 12.3289C245.745 8.49854 242.639 5.39341 238.809 5.39341C234.979 5.39341 231.874 8.49854 231.874 12.3289C231.874 16.1593 234.979 19.2644 238.809 19.2644Z" fill="#ED9DA0"/>
<path d="M242.364 0.717562C242.364 0.717562 245.146 -1.2903 247.616 3.03569C249.304 5.98971 250.199 11.6106 250.597 14.876C250.686 15.6097 250.547 16.3531 250.199 17.0051C249.851 17.657 249.31 18.1859 248.651 18.5197L239.893 22.9591C239.893 22.9591 243.136 10.6028 238.657 8.74936C234.178 6.89592 234.332 7.35848 234.332 7.35848C234.332 7.35848 230.78 15.0814 235.413 18.4791L231.553 20.9516C231.553 20.9516 228.927 6.43301 233.715 3.65267C238.503 0.872342 237.422 -1.13587 242.364 0.717562Z" fill="#2F2E41"/>
<path d="M183.398 43.2199C182.428 43.2876 181.5 43.6416 180.731 44.2371C179.963 44.8327 179.388 45.6429 179.08 46.5655C178.772 47.4881 178.744 48.4815 179 49.4202C179.256 50.3588 179.785 51.2006 180.519 51.8389C181.253 52.4772 182.16 52.8835 183.125 53.0064C184.089 53.1293 185.069 52.9632 185.939 52.5292C186.809 52.0951 187.53 51.4127 188.013 50.568C188.495 49.7234 188.716 48.7546 188.647 47.7841C188.556 46.4827 187.951 45.2708 186.967 44.4148C185.982 43.5589 184.698 43.1291 183.398 43.2199ZM183.858 49.7624C183.535 49.785 183.212 49.7111 182.931 49.5502C182.649 49.3893 182.422 49.1485 182.277 48.8583C182.132 48.5681 182.077 48.2415 182.117 47.9198C182.158 47.5982 182.293 47.2959 182.506 47.0511C182.718 46.8064 182.999 46.6303 183.311 46.545C183.624 46.4598 183.955 46.4692 184.262 46.5721C184.57 46.675 184.84 46.8668 185.038 47.1232C185.237 47.3796 185.355 47.6891 185.378 48.0126C185.393 48.2274 185.366 48.443 185.298 48.6472C185.229 48.8513 185.122 49.0401 184.981 49.2025C184.839 49.365 184.668 49.4981 184.475 49.5942C184.283 49.6902 184.073 49.7474 183.858 49.7624Z" fill="#9CC7CB"/>
<path d="M171.887 39.408C171.918 38.9421 172.131 38.5069 172.479 38.1959L174.624 36.1234C174.794 35.9707 174.993 35.8538 175.209 35.7796C175.425 35.7054 175.654 35.6753 175.882 35.6913C176.11 35.7072 176.332 35.7688 176.536 35.8724C176.739 35.976 176.92 36.1195 177.067 36.2943L183.486 43.8447C183.787 44.2024 183.937 44.6631 183.905 45.1294C183.872 45.5957 183.66 46.031 183.312 46.3433C183.142 46.4959 182.943 46.6128 182.727 46.6871C182.511 46.7613 182.283 46.7913 182.055 46.7754C181.827 46.7594 181.604 46.6978 181.401 46.5943C181.197 46.4907 181.016 46.3472 180.869 46.1724L176.215 39.5589L174.748 40.865C174.493 41.0946 174.174 41.2415 173.833 41.2863C173.492 41.3312 173.146 41.2719 172.839 41.1162C172.53 40.9561 172.275 40.7089 172.106 40.4051C171.937 40.1014 171.86 39.7546 171.887 39.408Z" fill="#9CC7CB"/>
<path d="M178.834 40.1183C178.467 40.1435 178.125 40.3126 177.882 40.5888L175.944 42.7943C175.712 43.0698 175.598 43.4261 175.628 43.7853C175.657 44.1446 175.827 44.4777 176.101 44.7121C176.377 44.948 176.733 45.068 177.095 45.047C177.457 45.0259 177.797 44.8655 178.043 44.5992L179.981 42.3941C180.161 42.1898 180.276 41.9363 180.311 41.666C180.346 41.3958 180.299 41.1213 180.177 40.8778C180.053 40.6328 179.859 40.43 179.62 40.2949C179.381 40.1598 179.108 40.0984 178.834 40.1183Z" fill="#9CC7CB"/>
<path d="M142.573 124.514C150.061 124.514 156.131 118.444 156.131 110.956C156.131 103.469 150.061 97.3993 142.573 97.3993C135.086 97.3993 129.016 103.469 129.016 110.956C129.016 118.444 135.086 124.514 142.573 124.514Z" fill="#9CC7CB"/>
<path d="M142.58 106.257C143.147 106.257 143.692 106.483 144.093 106.884C144.494 107.285 144.72 107.829 144.72 108.397V113.749C144.72 114.317 144.494 114.861 144.093 115.262C143.692 115.664 143.147 115.889 142.58 115.889C142.012 115.889 141.468 115.664 141.067 115.262C140.665 114.861 140.44 114.317 140.44 113.749V108.397C140.44 107.829 140.665 107.285 141.067 106.884C141.468 106.483 142.012 106.257 142.58 106.257Z" fill="white"/>
</svg>