<svg width="259" height="209" viewBox="0 0 259 209" fill="none" xmlns="http://www.w3.org/2000/svg">
<g id="register-vector" clip-path="url(#clip0_5_3110)">
<g id="Group 6">
<path id="Path 80" d="M248.739 0.000324033H170.993C167.242 0.000140391 163.602 1.27575 160.671 3.61747C157.741 5.95918 155.695 9.22764 154.87 12.8855L115.587 187.035C115.159 188.935 115.151 190.905 115.565 192.808C115.979 194.711 116.804 196.5 117.983 198.05C119.162 199.6 120.666 200.874 122.39 201.782C124.113 202.69 126.015 203.21 127.961 203.306L207.884 207.241C212.164 207.452 216.374 206.099 219.729 203.436C223.084 200.772 225.355 196.979 226.117 192.765L248.403 69.6392L250.061 70.1127L254.326 46.7756L252.619 46.3493L258.839 11.9803C259.106 10.5082 259.044 8.99542 258.659 7.54985C258.273 6.10427 257.573 4.7615 256.609 3.61728C255.645 2.47305 254.44 1.55555 253.08 0.930184C251.72 0.304817 250.239 -0.0130119 248.742 -0.000644248L248.739 0.000324033Z" fill="#3F3D56"/>
<path id="Path 81" d="M181.227 3.7545H172.153C169.547 3.75453 167.019 4.64538 164.989 6.27918C162.959 7.91298 161.55 10.1914 160.994 12.7364L123.287 185.466C123.069 186.46 123.07 187.49 123.287 188.484C123.505 189.479 123.934 190.414 124.547 191.228C125.159 192.041 125.94 192.712 126.836 193.196C127.733 193.68 128.723 193.965 129.739 194.031L209.403 199.25C211.65 199.397 213.873 198.712 215.648 197.326C217.422 195.939 218.623 193.948 219.023 191.733L251.198 13.2004C251.407 12.0449 251.359 10.8578 251.058 9.72286C250.757 8.58792 250.21 7.53281 249.457 6.632C248.703 5.73119 247.761 5.00662 246.697 4.50943C245.633 4.01223 244.472 3.75453 243.298 3.7545H234.689C233.856 3.75448 233.046 4.029 232.384 4.53556C231.723 5.04212 231.247 5.75247 231.03 6.55663C230.839 7.26682 230.419 7.89413 229.835 8.3414C229.25 8.78867 228.535 9.03094 227.799 9.03066H186.929C185.489 9.03062 184.101 8.48721 183.044 7.50905C181.987 6.53089 181.338 5.19004 181.227 3.7545Z" fill="white"/>
<path id="Path 93" d="M225.267 124.507C225.422 124.512 225.573 124.462 225.694 124.365C225.815 124.267 225.897 124.13 225.925 123.978L243.542 26.8001C243.558 26.7078 243.555 26.6129 243.532 26.5219C243.509 26.431 243.466 26.3461 243.407 26.2731C243.348 26.2007 243.275 26.142 243.191 26.1014C243.107 26.0607 243.015 26.0389 242.922 26.0377L162.771 25.0915H162.764C162.618 25.0927 162.477 25.1433 162.364 25.2349C162.251 25.3266 162.173 25.4538 162.142 25.5959L141.373 119.619C141.353 119.711 141.353 119.806 141.373 119.898C141.392 119.99 141.432 120.076 141.488 120.152C141.544 120.226 141.616 120.288 141.698 120.331C141.78 120.375 141.871 120.4 141.964 120.405L225.267 124.507Z" fill="#E6E6E6"/>
<path id="Path 94" d="M155.711 130.789C155.638 130.789 155.567 130.814 155.51 130.859C155.453 130.905 155.413 130.968 155.396 131.039L154.646 134.254C154.635 134.299 154.635 134.347 154.644 134.392C154.653 134.438 154.672 134.481 154.7 134.519C154.728 134.556 154.763 134.588 154.804 134.61C154.845 134.633 154.89 134.646 154.937 134.65L197.339 137.662C197.417 137.667 197.495 137.643 197.558 137.595C197.62 137.547 197.663 137.478 197.679 137.401L198.401 133.681C198.41 133.636 198.409 133.59 198.398 133.545C198.387 133.5 198.367 133.458 198.339 133.422C198.311 133.386 198.275 133.356 198.234 133.334C198.194 133.313 198.149 133.3 198.103 133.298L155.731 130.79L155.711 130.789Z" fill="#E6E6E6"/>
<path id="Path 95" d="M207.227 149.605C207.303 149.611 207.38 149.59 207.442 149.545C207.504 149.5 207.548 149.434 207.566 149.36L208.485 145.632C208.497 145.587 208.498 145.539 208.489 145.493C208.48 145.447 208.461 145.403 208.433 145.365C208.405 145.327 208.37 145.295 208.328 145.272C208.287 145.25 208.242 145.236 208.195 145.233L154.044 141.448C153.971 141.442 153.898 141.461 153.837 141.503C153.776 141.545 153.732 141.607 153.712 141.678L152.757 144.899C152.744 144.945 152.74 144.994 152.748 145.041C152.755 145.089 152.773 145.134 152.801 145.173C152.828 145.213 152.863 145.246 152.905 145.27C152.947 145.294 152.993 145.309 153.041 145.313L207.227 149.605Z" fill="#E6E6E6"/>
<path id="Path 96" d="M204.319 161.553C204.395 161.559 204.472 161.538 204.534 161.493C204.596 161.448 204.64 161.382 204.659 161.308L205.577 157.58C205.589 157.535 205.59 157.487 205.581 157.441C205.572 157.395 205.553 157.351 205.525 157.313C205.497 157.275 205.462 157.243 205.42 157.22C205.379 157.198 205.334 157.184 205.287 157.181L151.136 153.396C151.063 153.39 150.99 153.409 150.929 153.451C150.869 153.493 150.824 153.555 150.804 153.626L149.849 156.847C149.836 156.893 149.832 156.942 149.84 156.989C149.847 157.037 149.865 157.082 149.893 157.121C149.92 157.161 149.955 157.194 149.997 157.218C150.039 157.242 150.085 157.257 150.133 157.261L204.319 161.553Z" fill="#E6E6E6"/>
<path id="Path 79" d="M110.433 203.618C110.433 206.32 85.6813 206.608 55.2167 208.511C24.7793 210.412 0 206.32 0 203.618C0 200.915 24.895 195.477 55.2167 198.724C85.6813 201.986 110.433 200.915 110.433 203.618Z" fill="#E6E6E6"/>
<path id="Path 97" d="M179.38 181.979C179.457 181.987 179.535 181.967 179.598 181.922C179.661 181.877 179.706 181.811 179.724 181.736L181.667 173.969C181.678 173.923 181.68 173.876 181.671 173.83C181.662 173.784 181.644 173.74 181.616 173.702C181.589 173.664 181.554 173.632 181.513 173.609C181.473 173.586 181.427 173.572 181.381 173.568L148.127 170.773C148.049 170.767 147.972 170.79 147.91 170.836C147.847 170.882 147.803 170.949 147.785 171.024L146.127 178.479C146.117 178.523 146.117 178.57 146.126 178.615C146.136 178.66 146.155 178.702 146.182 178.739C146.209 178.776 146.243 178.807 146.283 178.83C146.323 178.852 146.367 178.866 146.413 178.87L179.38 181.979Z" fill="#9CC7CB"/>
<path id="Path 111" d="M45.1095 150.329C45.5282 150.042 45.8789 149.667 46.1369 149.23C46.3948 148.793 46.5538 148.305 46.6025 147.8C46.6513 147.295 46.5886 146.786 46.419 146.307C46.2493 145.829 45.9768 145.394 45.6206 145.033L46.967 114.994L40.1122 115.763L40.5106 145.145C39.9421 145.783 39.6276 146.607 39.6267 147.461C39.6258 148.315 39.9385 149.14 40.5057 149.779C41.0728 150.418 41.8548 150.827 42.7034 150.928C43.5521 151.029 44.4083 150.816 45.1098 150.328L45.1095 150.329Z" fill="#A0616A"/>
<path id="Path 112" d="M57.6152 201.178L61.5168 201.864L65.3729 187.15L60.2609 186.138L57.6152 201.178Z" fill="#A0616A"/>
<path id="Path 113" d="M68.405 206.807L56.1432 204.652L56.976 199.918L64.5003 201.24C65.7568 201.461 66.874 202.171 67.6063 203.215C68.3386 204.259 68.6259 205.552 68.405 206.807L68.405 206.807Z" fill="#2F2E41"/>
<path id="Path 114" d="M46.9064 203.13H50.8678L52.7522 187.859H46.9058L46.9064 203.13Z" fill="#A0616A"/>
<path id="Path 115" d="M58.5063 206.807L46.0564 206.808L46.0561 202L53.6958 202C54.9716 202 56.1951 202.506 57.0972 203.408C57.9994 204.309 58.5062 205.532 58.5063 206.807Z" fill="#2F2E41"/>
<path id="Path 116" d="M63.4335 197.657C63.3717 197.657 63.31 197.653 63.2487 197.646L58.5862 197.262C58.3739 197.237 58.1689 197.17 57.9836 197.063C57.7984 196.956 57.6367 196.813 57.5085 196.642C57.3803 196.472 57.2882 196.276 57.2378 196.069C57.1873 195.861 57.1796 195.646 57.2152 195.435L61.8438 172.609L58.9358 157.278C58.9121 157.154 58.8441 157.042 58.7444 156.963C58.6447 156.885 58.5199 156.845 58.3932 156.852C58.2665 156.858 58.1463 156.91 58.0549 156.998C57.9634 157.086 57.9069 157.204 57.8957 157.33L53.6108 196.285C53.5709 196.695 53.3729 197.074 53.0589 197.341C52.7448 197.609 52.3391 197.744 51.9274 197.718L47.5347 197.554C47.1498 197.527 46.7882 197.36 46.5181 197.084C46.2481 196.809 46.0884 196.444 46.069 196.059L46.4199 148.985L69.1933 146.14L70.7844 170.696L70.7779 170.722L64.9647 196.452C64.8811 196.795 64.6848 197.1 64.4072 197.319C64.1296 197.537 63.7867 197.656 63.4335 197.657Z" fill="#2F2E41"/>
<path id="Ellipse 16" d="M53.9302 95.53C58.3131 95.53 61.8662 91.9788 61.8662 87.5983C61.8662 83.2177 58.3131 79.6666 53.9302 79.6666C49.5472 79.6666 45.9941 83.2177 45.9941 87.5983C45.9941 91.9788 49.5472 95.53 53.9302 95.53Z" fill="#A0616A"/>
<path id="Path 117" d="M61.4074 152.567C60.1662 152.575 58.9489 152.227 57.8994 151.564C54.0543 149.163 49.6887 150.117 47.4282 150.9C47.2039 150.979 46.9647 151.005 46.7285 150.978C46.4923 150.952 46.2653 150.872 46.0644 150.745C45.8658 150.62 45.698 150.452 45.5735 150.253C45.4491 150.055 45.3712 149.831 45.3458 149.598L41.2355 112.904C40.5466 106.756 44.252 100.975 50.0461 99.1595C50.2639 99.0912 50.4852 99.0267 50.7101 98.9657C52.5132 98.4772 54.4014 98.3894 56.2421 98.7088C58.0827 99.0281 59.8309 99.7466 61.3638 100.814C62.9253 101.893 64.2311 103.301 65.1895 104.938C66.1478 106.576 66.7353 108.404 66.9107 110.293L70.3716 147.233C70.3951 147.472 70.3628 147.714 70.2772 147.938C70.1916 148.163 70.055 148.364 69.8782 148.527C68.6646 149.648 65.1433 152.567 61.4074 152.567Z" fill="#9CC7CB"/>
<path id="Path 118" d="M48.8897 120.772L39.6163 119.753C39.3524 119.724 39.0978 119.638 38.87 119.502C38.6422 119.366 38.4464 119.182 38.296 118.964C38.1456 118.745 38.0441 118.496 37.9984 118.235C37.9528 117.974 37.964 117.706 38.0314 117.449L40.3921 108.456C40.4616 107.782 40.6641 107.129 40.9879 106.534C41.3116 105.938 41.7503 105.413 42.2784 104.988C42.8064 104.563 43.4136 104.247 44.0646 104.058C44.7157 103.869 45.3977 103.811 46.0714 103.887C46.7451 103.963 47.397 104.172 47.9895 104.501C48.582 104.83 49.1033 105.274 49.5233 105.806C49.9433 106.337 50.2537 106.947 50.4365 107.6C50.6193 108.252 50.6709 108.935 50.5883 109.607L50.9389 118.867C50.9489 119.132 50.9016 119.397 50.8003 119.642C50.6989 119.887 50.5458 120.108 50.3515 120.289C50.1571 120.469 49.9261 120.606 49.674 120.69C49.422 120.773 49.1549 120.802 48.891 120.773L48.8897 120.772Z" fill="#9CC7CB"/>
<path id="Path 119" d="M70.3338 149.043C70.7148 148.708 71.0175 148.293 71.2208 147.829C71.4241 147.364 71.523 146.86 71.5105 146.353C71.498 145.846 71.3744 145.348 71.1484 144.894C70.9225 144.44 70.5996 144.041 70.2026 143.725L67.9173 113.743L61.2001 115.254L65.1421 144.452C64.6546 145.154 64.4417 146.01 64.5438 146.858C64.6459 147.706 65.0558 148.487 65.6958 149.053C66.3358 149.619 67.1614 149.931 68.0161 149.929C68.8708 149.927 69.695 149.612 70.3325 149.043H70.3338Z" fill="#A0616A"/>
<path id="Path 120" d="M58.6253 118.888C58.4308 118.707 58.2777 118.486 58.1763 118.241C58.075 117.996 58.0277 117.732 58.0378 117.467L58.3884 108.206C58.3128 107.537 58.3698 106.86 58.5562 106.213C58.7426 105.566 59.0546 104.961 59.4746 104.435C59.8945 103.908 60.4141 103.47 61.0037 103.144C61.5933 102.818 62.2414 102.611 62.9109 102.536C63.5804 102.46 64.2582 102.517 64.9057 102.703C65.5531 102.89 66.1575 103.202 66.6844 103.621C67.2113 104.041 67.6502 104.56 67.9763 105.15C68.3023 105.739 68.509 106.387 68.5846 107.056L70.9453 116.048C71.0127 116.305 71.0239 116.573 70.9783 116.834C70.9326 117.096 70.8311 117.344 70.6807 117.563C70.5303 117.782 70.3345 117.965 70.1067 118.101C69.8789 118.238 69.6243 118.323 69.3604 118.352L60.087 119.371C59.8231 119.4 59.5559 119.372 59.3039 119.289C59.0518 119.205 58.8208 119.068 58.6266 118.887L58.6253 118.888Z" fill="#9CC7CB"/>
<path id="Path 121" d="M53.4577 95.8288C53.3163 95.8287 53.1754 95.8124 53.0377 95.78L52.9973 95.7703C46.02 94.7046 44.4777 90.664 44.1394 88.9773C43.7892 87.2308 44.1879 85.5451 45.0894 84.8902C44.5979 83.34 44.6768 81.964 45.3243 80.8011C46.4552 78.773 48.9047 78.0884 49.234 78.0032C51.1914 76.5599 53.5334 77.5233 53.9595 77.7186C57.7461 76.3187 59.194 77.4839 59.4551 77.7442C61.1476 78.048 62.1793 78.7013 62.5218 79.687C63.1651 81.5377 61.1308 83.84 61.0438 83.9372L60.9986 83.9875L57.9678 84.1319C57.6802 84.1456 57.3987 84.2196 57.1415 84.3491C56.8844 84.4785 56.6574 84.6605 56.4751 84.8834C56.2929 85.1062 56.1596 85.3647 56.0838 85.6424C56.008 85.92 55.9915 86.2104 56.0352 86.4948C56.1172 86.8618 56.2208 87.2236 56.3454 87.5783C56.8624 89.1949 57.2501 90.5761 56.7506 91.1012C56.6373 91.2028 56.4976 91.2705 56.3476 91.2965C56.1976 91.3225 56.0434 91.3057 55.9024 91.2482C55.4284 91.1216 55.1069 91.1481 54.9467 91.3273C54.6979 91.6047 54.7738 92.3074 55.1606 93.3053C55.2819 93.6209 55.3146 93.9637 55.255 94.2965C55.1954 94.6293 55.0459 94.9395 54.8226 95.1935C54.6544 95.3917 54.4453 95.5512 54.2096 95.6608C53.9738 95.7705 53.7171 95.8278 53.4571 95.8288H53.4577Z" fill="#2F2E41"/>
</g>
</g>
<defs>
<clipPath id="clip0_5_3110">
<rect width="259" height="209" fill="white"/>
</clipPath>
</defs>
</svg>
