<svg width="360" height="172" viewBox="0 0 360 172" fill="none" xmlns="http://www.w3.org/2000/svg">
<g clip-path="url(#clip0_97_114)">
<path d="M310.501 90.8411C302.194 72.9042 285.938 57.6025 266.3 55.1085C261.108 54.4489 255.686 54.7137 250.869 56.7563C244.545 59.4377 239.884 64.8502 235.174 69.8438C225.201 80.4119 214.041 89.7971 201.915 97.8137C195.929 101.77 189.509 105.46 182.403 106.472C168.155 108.501 154.062 98.8023 147.564 85.9836C143.505 77.9761 141.63 68.5746 138.348 60.2455C134.571 60.2381 130.067 60.2396 125.223 60.2618C111.834 60.3235 100.936 60.5206 100.936 60.5206C100.936 60.5206 113.89 43.3922 125.175 49.7382C128.781 51.766 132.558 53.5757 136.029 55.0989C134.057 51.3124 131.57 47.9056 128.148 45.1664C121.4 39.7651 112.261 38.25 103.622 38.6522C94.5477 39.0744 85.3936 41.499 78.0218 46.7942C64.8892 56.2272 59.4663 72.831 54.8244 88.302L66.0437 93.9163C70.8559 89.7634 77.8933 85.6553 84.3796 89.3028C95.6622 95.6495 108.625 99.8641 108.625 99.8641C108.625 99.8641 97.8155 99.7665 84.4262 99.8271C82.1773 99.8375 80.0018 99.8519 77.9333 99.8681L202.495 162.2C243.579 162.778 274.557 160.56 313.596 162.2C315.633 162.286 320.212 151.632 320.226 148.829C320.335 129.069 318.807 108.778 310.501 90.8411ZM270.608 96.2173C257.219 96.2791 246.32 96.4761 246.32 96.4761C246.32 96.4761 259.274 79.3477 270.559 85.6937C281.843 92.0397 294.806 96.2532 294.806 96.2532C294.806 96.2532 283.996 96.1556 270.607 96.2162L270.608 96.2173Z" fill="#F2F2F2"/>
<path d="M360 172H0V171.26H359.639L360 172Z" fill="#CCCCCC"/>
<path d="M125.281 60.521C125.281 60.521 127.524 44.1062 131.261 48.5818C134.999 53.0574 131.261 59.7746 131.261 59.7746L128.27 63.5056L125.28 61.2671L125.281 60.521Z" fill="#FFB9B9"/>
<path d="M116.31 65.7438C116.31 65.7438 123.786 57.5364 125.281 59.0282C126.776 60.5199 131.261 61.2667 130.513 64.2513C129.766 67.2359 114.067 76.9374 114.067 76.9374L116.31 65.7438Z" fill="#9CC7CB"/>
<path opacity="0.1" d="M116.31 65.7438C116.31 65.7438 123.786 57.5364 125.281 59.0282C126.776 60.5199 131.261 61.2667 130.513 64.2513C129.766 67.2359 114.067 76.9374 114.067 76.9374L116.31 65.7438Z" fill="black"/>
<path d="M73.7011 64.9976V70.9672C73.7011 70.9672 72.9537 84.3985 77.4389 83.6525C81.9241 82.9064 79.6815 71.7132 79.6815 71.7132L78.9341 64.9976H73.7011Z" fill="#FFB9B9"/>
<path d="M75.9437 108.277C75.9437 108.277 69.2159 118.723 66.9733 119.469C64.7308 120.215 52.77 126.931 51.2752 133.647L40.8096 147.078L46.0422 153.794C46.0422 153.794 69.9633 128.424 76.6911 126.186C83.4189 123.948 90.1467 112.755 90.1467 112.755L75.9437 108.277Z" fill="#FFB9B9"/>
<path d="M129.018 91.1143C129.018 91.1143 143.221 93.3528 140.979 102.307C138.737 111.261 117.058 129.916 117.058 129.916L116.31 134.393L108.088 135.886L104.35 132.155L105.098 129.916C105.098 129.916 114.068 121.709 114.816 118.723C115.563 115.738 123.786 103.8 127.524 103.053L122.291 100.069L129.018 91.1143Z" fill="#FFB9B9"/>
<path d="M43.0519 147.079C43.0519 147.079 46.0419 142.601 41.5567 143.348C37.0715 144.094 34.0815 144.84 34.0815 147.825C34.0815 150.809 37.8193 171.703 42.3037 170.21C46.7882 168.718 43.0511 162.003 43.0511 162.003C43.0511 162.003 45.2937 156.033 46.7889 155.287C48.2841 154.541 48.2841 150.81 46.7889 150.81C45.2937 150.81 42.3045 148.571 43.0519 147.079Z" fill="#090814"/>
<path d="M106.592 130.662C106.592 130.662 106.592 126.931 103.602 130.662C100.612 134.393 99.117 137.378 102.107 139.617C105.097 141.855 115.563 147.078 115.563 147.078C115.563 147.078 126.775 149.317 125.28 144.094C125.28 144.094 117.805 140.363 117.805 137.378C117.805 134.393 117.805 129.171 115.563 130.662C113.32 132.154 106.592 132.902 106.592 130.662Z" fill="#090814"/>
<path d="M92.3892 74.698C92.3892 74.698 81.9237 76.1905 82.6715 91.1129C82.6715 91.1129 69.2159 104.544 72.9537 109.021C76.6915 113.498 84.9144 121.707 87.9044 119.468C90.8944 117.23 99.8644 100.069 99.8644 100.069C99.8644 100.069 120.796 107.531 124.533 103.8C128.27 100.069 132.008 91.1147 132.008 91.1147L113.32 81.4137L92.3892 74.698Z" fill="#090814"/>
<path d="M121.543 32.1653C126.497 32.1653 130.513 28.1564 130.513 23.2111C130.513 18.2658 126.497 14.2568 121.543 14.2568C116.589 14.2568 112.573 18.2658 112.573 23.2111C112.573 28.1564 116.589 32.1653 121.543 32.1653Z" fill="#FFB9B9"/>
<path d="M116.242 24.3118C116.242 24.3118 111.01 32.5192 109.515 33.266C108.02 34.0128 119.98 41.4734 119.98 41.4734C119.98 41.4734 119.98 31.7731 123.718 29.5342L116.242 24.3118Z" fill="#FFB9B9"/>
<path d="M114.068 32.1655C114.068 32.1655 102.107 28.4344 99.8644 34.404C97.6218 40.3737 92.3892 51.5665 93.1366 59.0282C93.884 66.4899 95.3792 64.9978 93.1366 67.2356C90.894 69.4734 89.3989 67.9817 90.1466 70.9667C90.8944 73.9517 91.6418 73.9513 90.8941 75.4438C90.1463 76.9363 99.8644 82.1595 108.087 82.9055L116.31 83.6516C116.31 83.6516 116.31 70.2202 117.805 67.2367C119.3 64.2532 122.29 58.2825 122.29 56.0439V50.1209C122.29 46.1787 121.259 42.3047 119.3 38.8819C119.3 38.8819 114.816 32.1655 114.068 32.1655Z" fill="#9CC7CB"/>
<path d="M105.097 35.1504C105.097 35.1504 77.4385 37.3889 74.4485 44.8507C71.4585 52.3124 69.9634 67.2362 72.9533 67.2362C75.9433 67.2362 79.6811 68.7287 80.4285 67.2362C81.1759 65.7438 84.1663 50.8214 84.9137 50.8214C85.6611 50.8214 108.087 48.5828 108.087 48.5828C108.087 48.5828 117.805 36.6425 105.097 35.1504Z" fill="#9CC7CB"/>
<path d="M121.905 20.9911C121.905 20.9911 124.285 16.8619 127.261 20.4484C130.237 24.0349 135.076 17.4438 134.335 16.0374C133.594 14.6311 130.968 16.1007 126.471 14.6326C121.974 13.1645 113.311 10.1754 111.86 19.9275C110.408 29.6795 113.864 28.6573 113.864 28.6573C113.864 28.6573 115.448 20.0158 116.879 22.498L118.311 24.9802L119.552 25.2852L121.905 20.9911Z" fill="#090814"/>
<path d="M260.958 39.1095C266.357 39.1095 270.735 34.7402 270.735 29.3504C270.735 23.9606 266.357 19.5913 260.958 19.5913C255.558 19.5913 251.181 23.9606 251.181 29.3504C251.181 34.7402 255.558 39.1095 260.958 39.1095Z" fill="#090814"/>
<path d="M256.111 36.2376C256.111 36.2376 256.699 46.8008 255.523 46.8008C254.348 46.8008 262.872 51.7888 262.872 51.7888L268.163 48.8545V45.3335C268.163 45.3335 261.111 44.4532 264.049 36.8243C266.988 29.1955 256.111 36.2376 256.111 36.2376Z" fill="#FFB9B9"/>
<path d="M231.42 152.139L230.539 160.942L233.478 161.822L235.83 159.475L236.712 152.139H231.42Z" fill="#FFB9B9"/>
<path d="M273.75 157.128L275.219 162.703L279.334 165.343L283.744 162.996L278.747 154.78L273.75 157.128Z" fill="#FFB9B9"/>
<path d="M260.236 40.4878C264.287 40.4878 267.572 37.2093 267.572 33.165C267.572 29.1208 264.287 25.8423 260.236 25.8423C256.184 25.8423 252.9 29.1208 252.9 33.165C252.9 37.2093 256.184 40.4878 260.236 40.4878Z" fill="#FFB9B9"/>
<path d="M253.761 64.1127L251.703 63.2325C251.703 63.2325 248.176 61.1784 247.881 57.0706C247.587 52.9628 250.821 47.6801 250.821 47.6801L255.525 46.2131L261.051 50.7025L261.11 57.9487L253.761 64.1127Z" fill="#FFB9B9"/>
<path d="M251.704 48.2679L250.528 47.6812C250.528 47.6812 244.649 47.3876 244.061 54.4298C243.473 61.4719 241.415 73.2089 241.415 73.2089C241.415 73.2089 236.712 81.4248 237.006 90.2274L234.655 97.8563C234.655 97.8563 231.421 109.006 235.242 109.006C239.064 109.006 238.77 96.976 238.77 96.976C238.77 96.976 245.825 79.9574 246.412 77.0235C247 74.0895 251.998 60.2984 250.528 56.4838C249.058 52.6692 251.704 48.2679 251.704 48.2679Z" fill="#FFB9B9"/>
<path d="M256.111 66.7534V69.9809C256.111 69.9809 258.169 72.3282 257.287 73.7955C256.405 75.2629 255.523 78.195 255.523 78.195L259.64 84.6508L273.455 85.8246L276.202 67.4503L256.111 66.7534Z" fill="#FFB9B9"/>
<path d="M269.046 46.2137L271.398 45.0399C271.398 45.0399 276.395 41.5188 280.509 40.9321L293.149 32.423L301.38 12.7636C301.38 12.7636 301.086 2.20041 303.437 3.37311C305.789 4.54581 305.495 13.6428 305.495 13.6428C305.495 13.6428 301.086 31.8348 297.264 36.8232C293.443 41.8116 279.63 50.0283 279.63 50.0283C279.63 50.0283 275.808 54.4278 276.102 56.4837C276.396 58.5396 269.046 46.2137 269.046 46.2137Z" fill="#FFB9B9"/>
<path d="M258.17 78.1969C258.17 78.1969 254.937 76.1428 252.879 79.6639C250.821 83.185 247 84.0634 244.648 94.6284C242.296 105.193 236.711 121.917 235.241 123.09C233.77 124.264 227.598 136.588 231.125 153.9H237.004L242.001 128.959C242.001 128.959 258.169 109.006 259.344 100.79L264.635 131.6C264.635 131.6 264.93 143.337 269.339 148.911L274.043 160.061L280.216 157.127L273.161 128.958C273.161 128.958 276.688 100.496 274.337 92.574L273.999 82.1875C273.999 82.1875 264.343 82.5982 258.17 78.1969Z" fill="#090814"/>
<path d="M233.478 159.475H229.951C229.363 159.475 224.66 163.29 226.718 165.343C228.775 167.397 232.009 171.212 232.009 171.212C232.009 171.212 243.473 172.667 243.767 170.613C244.061 168.559 238.77 164.17 238.77 164.17L237.3 159.474C237.3 159.474 234.36 156.247 233.478 159.475Z" fill="#090814"/>
<path d="M280.216 162.409C280.216 162.409 275.219 162.116 274.337 161.822C273.455 161.529 271.692 169.451 274.337 170.038C276.983 170.625 287.859 171.505 287.859 171.505C287.859 171.505 296.384 171.212 295.796 168.864C295.208 166.517 283.744 161.822 283.744 161.822C283.744 161.822 282.274 158.887 280.216 162.409Z" fill="#090814"/>
<path d="M256.994 45.9207L255.525 45.0404L253.761 46.5074C253.761 46.5074 259.052 50.0285 257.876 53.256C256.7 56.4835 251.704 63.2324 251.704 63.2324C251.704 63.2324 256.111 68.2208 256.111 69.9814C256.111 69.9814 267.575 65.8736 276.1 69.9814C276.1 69.9814 276.1 64.113 277.275 62.9392C278.451 61.7654 279.039 57.6577 276.1 54.1366C274.029 51.5457 272.161 48.7989 270.514 45.9207L267.575 44.1602L266.061 44.6408C266.061 44.6408 269.044 47.9759 266.105 48.2694C263.166 48.563 258.464 47.6805 256.994 45.9207Z" fill="#9CC7CB"/>
<path d="M268.103 12.7119C267.244 13.6695 266.067 14.285 264.788 14.4451C262.578 14.7601 264.315 18.2264 264.315 18.2264C264.142 17.8187 264.109 17.3649 264.223 16.9369C264.337 16.5088 264.591 16.1309 264.944 15.8629C266.209 14.7601 268.103 14.1301 268.103 12.7119Z" fill="#090814"/>
<path d="M263.842 21.6718C265.347 21.6718 266.567 20.454 266.567 18.9518C266.567 17.4497 265.347 16.2319 263.842 16.2319C262.337 16.2319 261.118 17.4497 261.118 18.9518C261.118 20.454 262.337 21.6718 263.842 21.6718Z" fill="#090814"/>
<path d="M267.023 21.6295C264.919 20.5318 261.298 19.67 259.373 19.7307L259.86 17.8733C261.564 19.0282 265.165 19.9067 267.51 19.7721L267.023 21.6295Z" fill="#9CC7CB"/>
<path d="M262.675 21.793C262.675 21.793 259.358 26.0483 252.723 26.9958C246.088 27.9434 251.302 38.3479 251.302 38.3479C251.302 38.3479 249.406 34.564 253.197 31.2529C256.989 27.9419 262.675 26.0483 262.675 21.793Z" fill="#090814"/>
<path d="M262.928 21.542C262.928 21.542 264.823 28.1641 267.666 29.1098C270.509 30.0555 269.088 39.9887 264.349 40.9348C264.349 40.9348 268.377 35.4954 266.008 31.2382C263.638 26.9811 262.217 23.6689 262.928 21.542Z" fill="#090814"/>
<path d="M313.874 5.86841H293.591V8.21566H313.874V5.86841Z" fill="#090814"/>
<path d="M313.874 14.0842C314.848 14.0842 315.637 10.9314 315.637 7.04212C315.637 3.15287 314.848 0 313.874 0C312.899 0 312.11 3.15287 312.11 7.04212C312.11 10.9314 312.899 14.0842 313.874 14.0842Z" fill="#090814"/>
<path d="M293.591 14.0842C294.566 14.0842 295.355 10.9314 295.355 7.04212C295.355 3.15287 294.566 0 293.591 0C292.617 0 291.828 3.15287 291.828 7.04212C291.828 10.9314 292.617 14.0842 293.591 14.0842Z" fill="#090814"/>
<path d="M324.162 163.735H303.88V166.083H324.162V163.735Z" fill="#090814"/>
<path d="M324.162 171.951C325.136 171.951 325.926 168.798 325.926 164.909C325.926 161.02 325.136 157.867 324.162 157.867C323.188 157.867 322.399 161.02 322.399 164.909C322.399 168.798 323.188 171.951 324.162 171.951Z" fill="#090814"/>
<path d="M303.88 171.951C304.854 171.951 305.643 168.798 305.643 164.909C305.643 161.02 304.854 157.867 303.88 157.867C302.905 157.867 302.116 161.02 302.116 164.909C302.116 168.798 302.905 171.951 303.88 171.951Z" fill="#090814"/>
</g>
<defs>
<clipPath id="clip0_97_114">
<rect width="360" height="172" fill="white"/>
</clipPath>
</defs>
</svg>
